<?xml version="1.0" standalone="no"?>
<!DOCTYPE svg PUBLIC "-//W3C//DTD SVG 20010904//EN"
 "http://www.w3.org/TR/2001/REC-SVG-20010904/DTD/svg10.dtd">
<svg version="1.0" xmlns="http://www.w3.org/2000/svg"
 width="121.000000pt" height="130.000000pt" viewBox="0 0 121.000000 130.000000"
 preserveAspectRatio="xMidYMid meet">

<g transform="translate(0.000000,130.000000) scale(0.100000,-0.100000)"
fill="#000000" stroke="none">
<path d="M553 1289 c-24 -6 -60 -26 -86 -50 -39 -33 -65 -79 -180 -307 -74
-147 -165 -334 -203 -417 -62 -136 -69 -157 -72 -225 -4 -92 17 -150 78 -209
119 -115 319 -90 465 58 21 23 43 41 48 41 5 0 36 -25 69 -55 83 -77 146 -107
236 -113 54 -3 84 0 119 13 104 40 175 145 176 260 1 74 -24 132 -245 577 -96
195 -171 332 -193 356 -58 65 -132 89 -212 71z m143 -104 c28 -22 63 -85 193
-348 200 -405 233 -481 239 -538 12 -126 -84 -226 -207 -217 -73 5 -134 35
-207 102 l-59 53 41 59 c90 131 124 216 124 308 -1 165 -170 263 -320 186
-154 -79 -146 -273 22 -507 l33 -45 -56 -53 c-76 -70 -148 -105 -216 -105
-122 0 -214 99 -201 215 3 23 29 96 59 161 90 201 328 671 356 705 54 64 134
74 199 24z m-36 -451 c94 -38 111 -134 49 -264 -20 -41 -51 -95 -69 -120 l-33
-44 -28 34 c-43 51 -98 163 -110 223 -10 48 -9 60 9 101 17 37 30 51 64 66 53
24 67 24 118 4z"/>
</g>
</svg>
